<?xml version="1.0" encoding="UTF-8"?>
<svg width="17px" height="5px" viewBox="0 0 17 5" version="1.1" xmlns="http://www.w3.org/2000/svg" xmlns:xlink="http://www.w3.org/1999/xlink">
    <!-- Generator: Sketch 45.1 (43504) - http://www.bohemiancoding.com/sketch -->
    <title>Dot</title>
    <desc>Created with Sketch.</desc>
    <defs></defs>
    <g id="Page-1" stroke="none" stroke-width="1" fill="none" fill-rule="evenodd">
        <g id="podcast-action-sheet" transform="translate(-284.000000, -89.000000)" fill="#FFFFFF">
            <g id="More-Icon" transform="translate(275.000000, 74.000000)">
                <path d="M11.0833333,19.5416667 C9.95575197,19.5416667 9.04166667,18.6275814 9.04166667,17.5 C9.04166667,16.3724186 9.95575197,15.4583333 11.0833333,15.4583333 C12.2109147,15.4583333 13.125,16.3724186 13.125,17.5 C13.125,18.6275814 12.2109147,19.5416667 11.0833333,19.5416667 Z M17.5,19.5416667 C16.3724186,19.5416667 15.4583333,18.6275814 15.4583333,17.5 C15.4583333,16.3724186 16.3724186,15.4583333 17.5,15.4583333 C18.6275814,15.4583333 19.5416667,16.3724186 19.5416667,17.5 C19.5416667,18.6275814 18.6275814,19.5416667 17.5,19.5416667 Z M23.9166667,19.5416667 C22.7890853,19.5416667 21.875,18.6275814 21.875,17.5 C21.875,16.3724186 22.7890853,15.4583333 23.9166667,15.4583333 C25.044248,15.4583333 25.9583333,16.3724186 25.9583333,17.5 C25.9583333,18.6275814 25.044248,19.5416667 23.9166667,19.5416667 Z" id="Dot"></path>
            </g>
        </g>
    </g>
</svg>