<?xml version="1.0" encoding="UTF-8"?>
<svg width="100px" height="100px" viewBox="0 0 100 100" version="1.1" xmlns="http://www.w3.org/2000/svg" xmlns:xlink="http://www.w3.org/1999/xlink">
    <!-- Generator: Sketch 45 (43475) - http://www.bohemiancoding.com/sketch -->
    <title>logo</title>
    <desc>Created with Sketch.</desc>
    <defs></defs>
    <g id="Symbols" stroke="none" stroke-width="1" fill="none" fill-rule="evenodd">
        <g id="logo" fill-rule="nonzero">
            <g id="Group">
                <path d="M32.7176324,76.8933385 C24.8488347,72.1996698 16.2897916,69.0245409 5.10781602,71.6474734 C7.04050317,75.5128477 9.38733756,79.1021238 12.1483192,82.2772527 C20.4312641,82.8294491 26.9195709,80.3445656 32.7176324,76.8933385 Z" id="Shape" fill="#ADFF2F"></path>
                <path d="M41.0005773,82.4153018 C38.6537429,80.7587128 36.4449576,79.2401729 33.9600741,77.721633 C28.4381108,81.1728601 22.2259022,83.7957926 14.2190554,83.7957926 C13.9429573,83.7957926 13.52881,83.7957926 13.2527118,83.7957926 C19.7410187,90.6982467 28.3000618,95.8060627 37.8254484,98.1528971 C43.0713135,95.2538664 47.4888841,92.0787375 51.0781602,89.1797068 C47.7649823,87.1089706 44.3137552,84.7621362 41.0005773,82.4153018 Z" id="Shape" fill="#7CFC00"></path>
                <path d="M52.5967001,89.7319031 C49.007424,92.6309339 45.0040007,95.6680137 40.0342337,98.4289953 C43.2093626,98.9811916 46.3844915,99.3953389 49.6976694,99.3953389 C58.3947616,99.3953389 66.5396574,97.1865536 73.7182097,93.1831302 C71.7855225,93.5972774 69.8528354,93.8733756 68.0581973,93.8733756 C62.398185,93.8733756 57.2903689,92.2167866 52.5967001,89.7319031 Z" id="Shape" fill="#00BFFF"></path>
                <path d="M56.3240254,86.6948233 C55.4957309,87.3850687 54.6674364,88.0753142 53.8391419,88.7655596 C60.741596,92.2167866 68.1962464,93.8733756 77.5835839,90.8362958 C81.3109092,88.3514123 84.6240871,85.3143325 87.5231178,81.8631055 C72.613817,72.8899152 66.2635592,78.2738294 56.3240254,86.6948233 Z" id="Shape" fill="#87CEFA"></path>
                <path d="M88.3514123,80.8967619 C90.9743449,77.721633 93.0450811,74.270406 94.8397192,70.5430808 C88.7655596,73.9943078 83.2435963,75.7889459 78.2738294,76.3411422 C81.1728601,77.1694367 84.6240871,78.5499275 88.3514123,80.8967619 Z" id="Shape" fill="#0000FF"></path>
                <path d="M27.8859145,52.1825529 C19.8790678,47.9030314 11.0439265,45.6942461 3.55271368e-15,48.5932768 C3.55271368e-15,49.007424 3.55271368e-15,49.4215713 3.55271368e-15,49.6976694 C3.55271368e-15,55.9098781 1.24244174,61.9840377 3.31317796,67.506001 C9.93953389,64.7450193 16.2897916,60.3274487 22.7780985,55.6337799 C24.4346875,54.5293873 26.0912765,53.2869456 27.8859145,52.1825529 Z" id="Shape" fill="#00FF7F"></path>
                <path d="M34.2361723,56.0479272 C32.5795833,54.9435345 30.9229943,53.8391419 29.2664053,52.8727983 C27.3337182,54.11524 25.5390801,55.4957309 23.606393,56.7381726 C17.2561352,61.2937923 10.6297793,65.849412 3.86537429,68.7484427 C4.00342337,69.16259 4.14147245,69.4386881 4.27952153,69.8528354 C12.1483192,66.2635592 18.9127242,63.0884304 24.9868838,60.3274487 C28.3000618,58.6708597 31.3371416,57.2903689 34.2361723,56.0479272 Z" id="Shape" fill="#32CD32"></path>
                <path d="M0,47.0747369 C11.5961229,44.0376571 20.8454113,46.6605896 29.1283562,51.2162093 C43.7615589,41.4147245 59.2230561,33.9600741 79.9304183,46.7986387 C85.3143325,48.3171786 91.3884921,50.8020621 99.2572898,54.2532891 C99.3953389,52.7347492 99.3953389,51.2162093 99.3953389,49.6976694 C99.3953389,22.2259022 77.0313876,0 49.6976694,0 C23.1922457,0 1.38049082,20.8454113 0,47.0747369 Z" id="Shape" fill="#FFFFFF"></path>
                <path d="M30.5088471,52.0445038 C32.3034851,53.0108474 33.9600741,54.2532891 35.7547122,55.3576818 C54.6674364,46.6605896 63.6406267,43.6235098 74.8226023,45.6942461 C57.1523198,36.8591048 43.4854608,43.3474117 30.5088471,52.0445038 Z" id="Shape" fill="#00FFFF"></path>
                <path d="M7.86879766,69.7147863 C18.3605279,68.0581973 26.5054237,71.5094243 34.0981232,76.065044 C36.7210557,74.4084551 39.2059392,72.4757679 41.6908227,70.6811299 C43.7615589,69.16259 45.8322951,67.6440501 48.0410804,66.1255102 C46.2464424,64.8830684 44.4518043,63.5025776 42.6571663,62.1220868 C40.3103319,60.3274487 37.9634975,58.5328107 35.478614,56.8762217 C32.4415342,58.2567125 29.1283562,59.7752524 25.5390801,61.4318414 C20.293215,63.9167249 14.4951536,66.6777065 7.86879766,69.7147863 Z" id="Shape" fill="#00FA9A"></path>
                <path d="M79.2401729,48.0410804 C65.9874611,44.3137552 57.5664671,46.7986387 36.9971539,56.1859763 C39.2059392,57.7045162 41.4147245,59.3611052 43.4854608,61.0176941 C45.4181479,62.536234 47.350835,63.9167249 49.2835222,65.2972157 C59.9133015,58.6708597 72.613817,55.2196327 94.9777682,68.8864918 C95.2538664,68.7484427 95.5299646,68.6103936 95.8060627,68.3342955 C96.3582591,66.8157556 96.9104554,65.2972157 97.4626517,63.6406267 C90.9743449,56.7381726 84.9001853,51.6303566 79.2401729,48.0410804 Z" id="Shape" fill="#00FFFF"></path>
                <path d="M97.876799,62.1220868 C98.4289953,60.0513506 98.8431425,57.8425653 99.1192407,55.6337799 C93.1831302,53.0108474 88.3514123,50.9401112 84.0718908,49.5596203 C88.3514123,52.8727983 93.0450811,57.0142708 97.876799,62.1220868 Z" id="Shape" fill="#1E90FF"></path>
                <path d="M93.5972774,69.7147863 C72.613817,57.0142708 60.741596,59.9133015 50.5259639,66.2635592 C62.536234,74.5465041 75.0987005,79.9304183 93.5972774,69.7147863 Z" id="Shape" fill="#7FFFD4"></path>
                <path d="M49.2835222,66.9538046 C46.9366878,68.4723445 44.7279025,70.1289335 42.5191172,71.7855225 C40.1722828,73.5801606 37.8254484,75.2367496 35.3405649,76.8933385 C37.5493502,78.2738294 39.6200865,79.7923693 41.8288718,81.3109092 C45.4181479,83.7957926 48.8693749,86.142627 52.4586511,88.2133632 C53.4249946,87.3850687 54.5293873,86.5567743 55.3576818,85.7284798 C60.6035469,81.3109092 64.8830684,77.721633 69.9908844,76.4791913 C62.2601359,75.2367496 55.6337799,71.5094243 49.2835222,66.9538046 Z" id="Shape" fill="#40E0D0"></path>
            </g>
        </g>
    </g>
</svg>